<svg xmlns="http://www.w3.org/2000/svg" xmlns:xlink="http://www.w3.org/1999/xlink" width="342" zoomAndPan="magnify" viewBox="0 0 256.5 85.499998" height="114" preserveAspectRatio="xMidYMid meet" version="1.2"><defs><clipPath id="58a7b79ce0"><path d="M 236.90625 49.78125 L 252.632812 49.78125 L 252.632812 65.507812 L 236.90625 65.507812 Z M 236.90625 49.78125 "/></clipPath><clipPath id="7081a1a388"><path d="M 244.769531 49.78125 C 240.425781 49.78125 236.90625 53.300781 236.90625 57.644531 C 236.90625 61.988281 240.425781 65.507812 244.769531 65.507812 C 249.113281 65.507812 252.632812 61.988281 252.632812 57.644531 C 252.632812 53.300781 249.113281 49.78125 244.769531 49.78125 Z M 244.769531 49.78125 "/></clipPath></defs><g id="7f22c4d6fa"><g style="fill:#1e1e1e;fill-opacity:1;"><g transform="translate(0.509616, 63.461248)"><path style="stroke:none" d="M 4.28125 0 L 4.28125 -44.484375 L 14.171875 -44.484375 L 14.171875 0 Z M 11.90625 0 L 11.90625 -8.6875 L 33.890625 -8.6875 L 33.890625 0 Z M 11.90625 0 "/></g></g><g style="fill:#1e1e1e;fill-opacity:1;"><g transform="translate(35.340995, 63.461248)"><path style="stroke:none" d="M 16.1875 0.625 C 13.375 0.625 10.863281 -0.0664062 8.65625 -1.453125 C 6.457031 -2.835938 4.71875 -4.722656 3.4375 -7.109375 C 2.15625 -9.503906 1.515625 -12.238281 1.515625 -15.3125 C 1.515625 -18.375 2.15625 -21.101562 3.4375 -23.5 C 4.71875 -25.894531 6.457031 -27.785156 8.65625 -29.171875 C 10.863281 -30.554688 13.375 -31.25 16.1875 -31.25 C 18.25 -31.25 20.109375 -30.847656 21.765625 -30.046875 C 23.421875 -29.253906 24.773438 -28.15625 25.828125 -26.75 C 26.878906 -25.34375 27.46875 -23.734375 27.59375 -21.921875 L 27.59375 -8.6875 C 27.46875 -6.882812 26.890625 -5.28125 25.859375 -3.875 C 24.828125 -2.46875 23.472656 -1.363281 21.796875 -0.5625 C 20.117188 0.226562 18.25 0.625 16.1875 0.625 Z M 18.140625 -8.0625 C 20.203125 -8.0625 21.863281 -8.742188 23.125 -10.109375 C 24.382812 -11.472656 25.015625 -13.207031 25.015625 -15.3125 C 25.015625 -16.738281 24.726562 -18 24.15625 -19.09375 C 23.59375 -20.1875 22.796875 -21.035156 21.765625 -21.640625 C 20.734375 -22.242188 19.546875 -22.546875 18.203125 -22.546875 C 16.859375 -22.546875 15.671875 -22.242188 14.640625 -21.640625 C 13.617188 -21.035156 12.800781 -20.1875 12.1875 -19.09375 C 11.582031 -18 11.28125 -16.738281 11.28125 -15.3125 C 11.28125 -13.925781 11.570312 -12.6875 12.15625 -11.59375 C 12.75 -10.5 13.566406 -9.632812 14.609375 -9 C 15.660156 -8.375 16.835938 -8.0625 18.140625 -8.0625 Z M 24.640625 0 L 24.640625 -8.25 L 26.078125 -15.6875 L 24.640625 -23.125 L 24.640625 -30.625 L 34.078125 -30.625 L 34.078125 0 Z M 24.640625 0 "/></g></g><g style="fill:#1e1e1e;fill-opacity:1;"><g transform="translate(72.817869, 63.461248)"><path style="stroke:none" d="M 17.015625 0.6875 C 14.191406 0.6875 11.695312 0.113281 9.53125 -1.03125 C 7.375 -2.1875 5.6875 -3.785156 4.46875 -5.828125 C 3.25 -7.867188 2.640625 -10.210938 2.640625 -12.859375 L 2.640625 -30.625 L 12.28125 -30.625 L 12.28125 -12.984375 C 12.28125 -11.929688 12.457031 -11.023438 12.8125 -10.265625 C 13.175781 -9.515625 13.710938 -8.925781 14.421875 -8.5 C 15.140625 -8.082031 16.003906 -7.875 17.015625 -7.875 C 18.441406 -7.875 19.570312 -8.320312 20.40625 -9.21875 C 21.25 -10.125 21.671875 -11.378906 21.671875 -12.984375 L 21.671875 -30.625 L 31.3125 -30.625 L 31.3125 -12.921875 C 31.3125 -10.234375 30.703125 -7.867188 29.484375 -5.828125 C 28.265625 -3.785156 26.582031 -2.1875 24.4375 -1.03125 C 22.300781 0.113281 19.828125 0.6875 17.015625 0.6875 Z M 17.015625 0.6875 "/></g></g><g style="fill:#1e1e1e;fill-opacity:1;"><g transform="translate(106.767507, 63.461248)"><path style="stroke:none" d="M 3.40625 0 L 3.40625 -30.625 L 13.046875 -30.625 L 13.046875 0 Z M 13.046875 -16.828125 L 9.015625 -19.96875 C 9.804688 -23.539062 11.144531 -26.3125 13.03125 -28.28125 C 14.925781 -30.257812 17.554688 -31.25 20.921875 -31.25 C 22.390625 -31.25 23.675781 -31.023438 24.78125 -30.578125 C 25.894531 -30.140625 26.875 -29.457031 27.71875 -28.53125 L 21.984375 -21.296875 C 21.566406 -21.753906 21.039062 -22.109375 20.40625 -22.359375 C 19.78125 -22.617188 19.066406 -22.75 18.265625 -22.75 C 16.671875 -22.75 15.398438 -22.253906 14.453125 -21.265625 C 13.515625 -20.273438 13.046875 -18.796875 13.046875 -16.828125 Z M 13.046875 -16.828125 "/></g></g><g style="fill:#1e1e1e;fill-opacity:1;"><g transform="translate(132.780602, 63.461248)"><path style="stroke:none" d="M 18.515625 0.6875 C 15.203125 0.6875 12.253906 0.00390625 9.671875 -1.359375 C 7.085938 -2.722656 5.0625 -4.617188 3.59375 -7.046875 C 2.125 -9.484375 1.390625 -12.238281 1.390625 -15.3125 C 1.390625 -18.375 2.113281 -21.113281 3.5625 -23.53125 C 5.007812 -25.945312 6.972656 -27.847656 9.453125 -29.234375 C 11.929688 -30.617188 14.722656 -31.3125 17.828125 -31.3125 C 20.847656 -31.3125 23.515625 -30.660156 25.828125 -29.359375 C 28.140625 -28.054688 29.957031 -26.25 31.28125 -23.9375 C 32.601562 -21.625 33.265625 -18.976562 33.265625 -16 C 33.265625 -15.457031 33.234375 -14.878906 33.171875 -14.265625 C 33.109375 -13.660156 32.992188 -12.957031 32.828125 -12.15625 L 6.421875 -12.09375 L 6.421875 -18.71875 L 28.734375 -18.78125 L 24.5625 -16 C 24.519531 -17.757812 24.25 -19.21875 23.75 -20.375 C 23.25 -21.53125 22.503906 -22.410156 21.515625 -23.015625 C 20.523438 -23.628906 19.316406 -23.9375 17.890625 -23.9375 C 16.378906 -23.9375 15.066406 -23.585938 13.953125 -22.890625 C 12.835938 -22.203125 11.972656 -21.226562 11.359375 -19.96875 C 10.753906 -18.707031 10.453125 -17.175781 10.453125 -15.375 C 10.453125 -13.5625 10.773438 -12.015625 11.421875 -10.734375 C 12.078125 -9.453125 13.003906 -8.460938 14.203125 -7.765625 C 15.398438 -7.078125 16.816406 -6.734375 18.453125 -6.734375 C 19.972656 -6.734375 21.335938 -6.992188 22.546875 -7.515625 C 23.765625 -8.046875 24.835938 -8.835938 25.765625 -9.890625 L 31.0625 -4.59375 C 29.550781 -2.832031 27.722656 -1.507812 25.578125 -0.625 C 23.429688 0.25 21.078125 0.6875 18.515625 0.6875 Z M 18.515625 0.6875 "/></g></g><g style="fill:#1e1e1e;fill-opacity:1;"><g transform="translate(167.29712, 63.461248)"><path style="stroke:none" d="M 23.625 0 L 23.625 -17.453125 C 23.625 -19.046875 23.128906 -20.335938 22.140625 -21.328125 C 21.148438 -22.316406 19.898438 -22.8125 18.390625 -22.8125 C 17.347656 -22.8125 16.425781 -22.585938 15.625 -22.140625 C 14.820312 -21.703125 14.191406 -21.070312 13.734375 -20.25 C 13.273438 -19.4375 13.046875 -18.503906 13.046875 -17.453125 L 9.328125 -19.28125 C 9.328125 -21.675781 9.847656 -23.773438 10.890625 -25.578125 C 11.941406 -27.378906 13.398438 -28.773438 15.265625 -29.765625 C 17.140625 -30.753906 19.253906 -31.25 21.609375 -31.25 C 23.878906 -31.25 25.882812 -30.710938 27.625 -29.640625 C 29.363281 -28.566406 30.738281 -27.148438 31.75 -25.390625 C 32.757812 -23.628906 33.265625 -21.695312 33.265625 -19.59375 L 33.265625 0 Z M 3.40625 0 L 3.40625 -30.625 L 13.046875 -30.625 L 13.046875 0 Z M 3.40625 0 "/></g></g><g style="fill:#1e1e1e;fill-opacity:1;"><g transform="translate(202.947337, 63.461248)"><path style="stroke:none" d="M 7.75 0 L 7.75 -43.28125 L 17.390625 -43.28125 L 17.390625 0 Z M 0.8125 -22.421875 L 0.8125 -30.625 L 24.3125 -30.625 L 24.3125 -22.421875 Z M 0.8125 -22.421875 "/></g></g><g clip-rule="nonzero" clip-path="url(#58a7b79ce0)"><g clip-rule="nonzero" clip-path="url(#7081a1a388)"><path style=" stroke:none;fill-rule:nonzero;fill:#ec1552;fill-opacity:1;" d="M 236.90625 49.78125 L 252.632812 49.78125 L 252.632812 65.507812 L 236.90625 65.507812 Z M 236.90625 49.78125 "/></g></g></g></svg>