<svg xmlns="http://www.w3.org/2000/svg" xmlns:xlink="http://www.w3.org/1999/xlink" width="70" zoomAndPan="magnify" viewBox="0 0 52.5 52.499999" height="70" preserveAspectRatio="xMidYMid meet" version="1.2"><defs><clipPath id="428dc009eb"><path d="M 1.191406 11.039062 L 50.96875 11.039062 L 50.96875 40.757812 L 1.191406 40.757812 Z M 1.191406 11.039062 "/></clipPath></defs><g id="e1798e9801"><g clip-rule="nonzero" clip-path="url(#428dc009eb)"><path style=" stroke:none;fill-rule:nonzero;fill:#000000;fill-opacity:1;" d="M 12.945312 18.789062 L 22.328125 18.789062 L 22.328125 19.527344 L 13.804688 19.527344 L 13.804688 25.085938 L 21.820312 25.085938 L 21.820312 25.824219 L 13.804688 25.824219 L 13.804688 31.925781 L 22.425781 31.925781 L 22.425781 32.664062 L 12.945312 32.664062 Z M 23.167969 18.789062 L 24.167969 18.789062 L 28.585938 24.890625 L 33.097656 18.789062 L 39.242188 11.039062 L 29.152344 25.53125 L 34.351562 32.664062 L 33.3125 32.664062 L 28.585938 26.171875 L 23.835938 32.664062 L 22.816406 32.664062 L 28.054688 25.53125 Z M 34.722656 19.527344 L 34.722656 18.789062 L 45.414062 18.789062 L 45.414062 19.527344 L 40.488281 19.527344 L 40.488281 32.664062 L 39.628906 32.664062 L 39.628906 19.527344 Z M 1.207031 18.789062 L 2.285156 18.789062 L 17.109375 40.753906 L 10.980469 32.664062 L 2.109375 19.839844 L 2.070312 32.664062 L 1.210938 32.664062 L 1.210938 18.789062 Z M 45.328125 31.703125 C 45.152344 31.703125 45.019531 31.566406 45.019531 31.394531 C 45.019531 31.21875 45.152344 31.085938 45.328125 31.085938 C 45.503906 31.085938 45.632812 31.21875 45.632812 31.394531 C 45.632812 31.566406 45.503906 31.703125 45.328125 31.703125 Z M 46.171875 30.890625 L 46.632812 30.890625 C 46.636719 31.136719 46.820312 31.300781 47.089844 31.300781 C 47.386719 31.300781 47.554688 31.125 47.554688 30.789062 L 47.554688 28.675781 L 48.027344 28.675781 L 48.027344 30.792969 C 48.027344 31.394531 47.671875 31.738281 47.09375 31.738281 C 46.546875 31.738281 46.171875 31.402344 46.171875 30.890625 Z M 48.636719 30.863281 L 49.101562 30.863281 C 49.140625 31.148438 49.421875 31.328125 49.828125 31.328125 C 50.203125 31.328125 50.480469 31.132812 50.480469 30.867188 C 50.480469 30.640625 50.304688 30.503906 49.902344 30.410156 L 49.515625 30.316406 C 48.96875 30.191406 48.71875 29.929688 48.71875 29.488281 C 48.71875 28.957031 49.160156 28.601562 49.816406 28.601562 C 50.429688 28.601562 50.878906 28.957031 50.90625 29.460938 L 50.449219 29.460938 C 50.40625 29.183594 50.164062 29.011719 49.8125 29.011719 C 49.441406 29.011719 49.195312 29.1875 49.195312 29.457031 C 49.195312 29.671875 49.355469 29.792969 49.746094 29.886719 L 50.078125 29.964844 C 50.699219 30.109375 50.953125 30.359375 50.953125 30.808594 C 50.953125 31.378906 50.507812 31.738281 49.789062 31.738281 C 49.121094 31.738281 48.671875 31.398438 48.636719 30.863281 Z M 48.636719 30.863281 "/></g></g></svg>