<svg xmlns="http://www.w3.org/2000/svg" xmlns:xlink="http://www.w3.org/1999/xlink" width="96" zoomAndPan="magnify" viewBox="0 0 72 72" height="96" preserveAspectRatio="xMidYMid meet" version="1.2"><defs><clipPath id="4757e1897a"><path d="M 1.351562 1.800781 L 71 1.800781 L 71 70.648438 L 1.351562 70.648438 Z M 1.351562 1.800781 "/></clipPath><clipPath id="1bf3e8fb7b"><path d="M 8.851562 1.800781 L 63.300781 1.800781 C 65.289062 1.800781 67.195312 2.589844 68.601562 3.996094 C 70.011719 5.402344 70.800781 7.3125 70.800781 9.300781 L 70.800781 63.148438 C 70.800781 65.140625 70.011719 67.046875 68.601562 68.453125 C 67.195312 69.859375 65.289062 70.648438 63.300781 70.648438 L 8.851562 70.648438 C 6.859375 70.648438 4.953125 69.859375 3.546875 68.453125 C 2.140625 67.046875 1.351562 65.140625 1.351562 63.148438 L 1.351562 9.300781 C 1.351562 7.3125 2.140625 5.402344 3.546875 3.996094 C 4.953125 2.589844 6.859375 1.800781 8.851562 1.800781 Z M 8.851562 1.800781 "/></clipPath><clipPath id="5e6dcd12c7"><path d="M 18 45 L 24 45 L 24 53.460938 L 18 53.460938 Z M 18 45 "/></clipPath><clipPath id="036452a4cb"><path d="M 33 45 L 40 45 L 40 53.460938 L 33 53.460938 Z M 33 45 "/></clipPath><clipPath id="82c7eaed13"><path d="M 26 41 L 32 41 L 32 53.460938 L 26 53.460938 Z M 26 41 "/></clipPath><clipPath id="e809796440"><path d="M 41 38 L 48 38 L 48 53.460938 L 41 53.460938 Z M 41 38 "/></clipPath><clipPath id="925cf8d7ae"><path d="M 49 33 L 55 33 L 55 53.460938 L 49 53.460938 Z M 49 33 "/></clipPath><clipPath id="f6daa7de67"><path d="M 14.421875 18.960938 L 57.921875 18.960938 L 57.921875 47 L 14.421875 47 Z M 14.421875 18.960938 "/></clipPath></defs><g id="d6403239f1"><g clip-rule="nonzero" clip-path="url(#4757e1897a)"><g clip-rule="nonzero" clip-path="url(#1bf3e8fb7b)"><path style=" stroke:none;fill-rule:nonzero;fill:#fe388b;fill-opacity:1;" d="M 1.351562 1.800781 L 70.738281 1.800781 L 70.738281 70.648438 L 1.351562 70.648438 Z M 1.351562 1.800781 "/></g></g><g clip-rule="nonzero" clip-path="url(#5e6dcd12c7)"><path style=" stroke:none;fill-rule:nonzero;fill:#ffffff;fill-opacity:1;" d="M 23.917969 45.476562 C 23.917969 45.4375 23.898438 45.40625 23.863281 45.390625 C 23.824219 45.378906 23.792969 45.382812 23.761719 45.414062 L 18.335938 50.839844 C 18.320312 50.855469 18.308594 50.878906 18.308594 50.902344 L 18.3125 53.257812 C 18.3125 53.386719 18.375 53.449219 18.503906 53.449219 L 23.726562 53.449219 C 23.855469 53.449219 23.917969 53.386719 23.917969 53.257812 Z M 23.917969 45.476562 "/></g><g clip-rule="nonzero" clip-path="url(#036452a4cb)"><path style=" stroke:none;fill-rule:nonzero;fill:#ffffff;fill-opacity:1;" d="M 39.410156 45.953125 C 39.410156 45.910156 39.390625 45.882812 39.355469 45.867188 C 39.316406 45.851562 39.285156 45.859375 39.253906 45.886719 L 35.847656 49.296875 C 35.804688 49.339844 35.761719 49.339844 35.71875 49.296875 L 33.957031 47.535156 C 33.929688 47.507812 33.894531 47.5 33.859375 47.515625 C 33.820312 47.53125 33.804688 47.5625 33.804688 47.601562 L 33.804688 53.257812 C 33.804688 53.386719 33.867188 53.449219 33.996094 53.449219 L 39.21875 53.449219 C 39.347656 53.449219 39.410156 53.386719 39.410156 53.257812 Z M 39.410156 45.953125 "/></g><g clip-rule="nonzero" clip-path="url(#82c7eaed13)"><path style=" stroke:none;fill-rule:nonzero;fill:#ffffff;fill-opacity:1;" d="M 31.664062 45.28125 C 31.664062 45.253906 31.65625 45.234375 31.636719 45.214844 L 28.003906 41.582031 C 27.945312 41.527344 27.878906 41.496094 27.796875 41.496094 C 27.714844 41.496094 27.648438 41.527344 27.589844 41.582031 L 26.082031 43.089844 C 26.066406 43.109375 26.054688 43.128906 26.054688 43.15625 L 26.058594 53.257812 C 26.058594 53.386719 26.121094 53.449219 26.25 53.449219 L 31.472656 53.449219 C 31.601562 53.449219 31.664062 53.386719 31.664062 53.257812 Z M 31.664062 45.28125 "/></g><g clip-rule="nonzero" clip-path="url(#e809796440)"><path style=" stroke:none;fill-rule:nonzero;fill:#ffffff;fill-opacity:1;" d="M 47.15625 38.207031 C 47.15625 38.164062 47.136719 38.136719 47.101562 38.121094 C 47.0625 38.105469 47.03125 38.113281 47.003906 38.140625 L 41.578125 43.566406 C 41.558594 43.585938 41.550781 43.605469 41.550781 43.632812 L 41.550781 53.257812 C 41.550781 53.386719 41.613281 53.449219 41.742188 53.449219 L 46.964844 53.449219 C 47.09375 53.449219 47.15625 53.386719 47.15625 53.257812 Z M 47.15625 38.207031 "/></g><g clip-rule="nonzero" clip-path="url(#925cf8d7ae)"><path style=" stroke:none;fill-rule:nonzero;fill:#ffffff;fill-opacity:1;" d="M 54.902344 36.9375 C 54.902344 36.914062 54.894531 36.890625 54.875 36.875 L 51.78125 33.777344 C 51.722656 33.71875 51.652344 33.691406 51.574219 33.691406 C 51.492188 33.691406 51.421875 33.71875 51.367188 33.777344 L 49.324219 35.820312 C 49.304688 35.839844 49.296875 35.859375 49.296875 35.886719 L 49.296875 53.257812 C 49.296875 53.386719 49.359375 53.449219 49.488281 53.449219 L 54.710938 53.449219 C 54.839844 53.449219 54.902344 53.386719 54.902344 53.257812 Z M 54.902344 36.9375 "/></g><g clip-rule="nonzero" clip-path="url(#f6daa7de67)"><path style=" stroke:none;fill-rule:nonzero;fill:#ffffff;fill-opacity:1;" d="M 57.195312 18.984375 L 44.683594 21.394531 C 44.574219 21.414062 44.5 21.480469 44.46875 21.585938 C 44.433594 21.695312 44.457031 21.785156 44.539062 21.867188 L 47.609375 24.9375 L 35.988281 36.554688 C 35.933594 36.613281 35.863281 36.640625 35.78125 36.640625 C 35.703125 36.640625 35.632812 36.613281 35.574219 36.554688 L 28.0625 29.042969 C 27.988281 28.972656 27.902344 28.933594 27.796875 28.933594 C 27.691406 28.933594 27.605469 28.972656 27.53125 29.042969 L 14.53125 42.046875 C 14.457031 42.117188 14.421875 42.207031 14.421875 42.3125 C 14.421875 42.417969 14.457031 42.503906 14.53125 42.578125 L 17.960938 46.011719 C 18.035156 46.082031 18.125 46.121094 18.230469 46.121094 C 18.332031 46.121094 18.421875 46.082031 18.496094 46.011719 L 27.589844 36.914062 C 27.648438 36.859375 27.714844 36.828125 27.796875 36.828125 C 27.878906 36.828125 27.945312 36.859375 28.003906 36.914062 L 35.515625 44.425781 C 35.589844 44.5 35.679688 44.535156 35.78125 44.535156 C 35.886719 44.535156 35.976562 44.5 36.050781 44.425781 L 51.574219 28.902344 L 54.644531 31.972656 C 54.722656 32.050781 54.816406 32.074219 54.921875 32.039062 C 55.03125 32.007812 55.09375 31.9375 55.117188 31.828125 L 57.523438 19.3125 C 57.542969 19.214844 57.519531 19.132812 57.449219 19.0625 C 57.378906 18.992188 57.292969 18.96875 57.195312 18.984375 Z M 57.195312 18.984375 "/></g></g></svg>