<svg xmlns="http://www.w3.org/2000/svg" xmlns:xlink="http://www.w3.org/1999/xlink" width="70" zoomAndPan="magnify" viewBox="0 0 52.5 52.499999" height="70" preserveAspectRatio="xMidYMid meet" version="1.2"><defs><clipPath id="f82dd3cabc"><path d="M 1.671875 1.671875 L 50.703125 1.671875 L 50.703125 50.703125 L 1.671875 50.703125 Z M 1.671875 1.671875 "/></clipPath></defs><g id="3fb26c9817"><g clip-rule="nonzero" clip-path="url(#f82dd3cabc)"><path style=" stroke:none;fill-rule:nonzero;fill:#babffc;fill-opacity:1;" d="M 44.253906 1.671875 L 8.125 1.671875 C 4.566406 1.671875 1.671875 4.566406 1.671875 8.125 L 1.671875 44.253906 C 1.671875 47.808594 4.566406 50.703125 8.125 50.703125 L 44.253906 50.703125 C 47.808594 50.703125 50.703125 47.808594 50.703125 44.253906 L 50.703125 8.125 C 50.703125 4.566406 47.808594 1.671875 44.253906 1.671875 Z M 44.253906 1.671875 "/></g><path style=" stroke:none;fill-rule:nonzero;fill:#324561;fill-opacity:1;" d="M 14.230469 19.183594 L 10.175781 19.183594 C 9.40625 19.183594 8.925781 19.679688 8.925781 20.476562 L 8.925781 32.070312 C 8.925781 32.867188 9.40625 33.363281 10.175781 33.363281 C 10.9375 33.363281 11.429688 32.855469 11.429688 32.070312 L 11.429688 28.550781 L 14.164062 28.550781 C 16.960938 28.550781 18.914062 26.621094 18.914062 23.859375 C 18.914062 21.109375 16.988281 19.183594 14.230469 19.183594 Z M 16.363281 23.871094 C 16.363281 25.492188 15.40625 26.386719 13.664062 26.386719 L 11.433594 26.386719 L 11.433594 21.359375 L 13.675781 21.359375 C 15.410156 21.359375 16.363281 22.25 16.363281 23.871094 Z M 16.363281 23.871094 "/><path style=" stroke:none;fill-rule:nonzero;fill:#324561;fill-opacity:1;" d="M 30.753906 19.035156 C 29.992188 19.035156 29.5 19.542969 29.5 20.324219 L 29.5 24.953125 L 22.886719 24.953125 L 22.886719 20.324219 C 22.886719 19.542969 22.394531 19.035156 21.632812 19.035156 C 20.859375 19.035156 20.378906 19.53125 20.378906 20.324219 L 20.378906 32.070312 C 20.378906 32.867188 20.859375 33.363281 21.632812 33.363281 C 22.394531 33.363281 22.886719 32.855469 22.886719 32.070312 L 22.886719 27.171875 L 29.5 27.171875 L 29.5 32.070312 C 29.5 32.855469 29.992188 33.363281 30.753906 33.363281 C 31.511719 33.363281 32.003906 32.855469 32.003906 32.070312 L 32.003906 20.324219 C 32.003906 19.542969 31.511719 19.035156 30.753906 19.035156 Z M 30.753906 19.035156 "/><path style=" stroke:none;fill-rule:nonzero;fill:#324561;fill-opacity:1;" d="M 39.429688 19.183594 L 35.371094 19.183594 C 34.613281 19.183594 34.121094 19.691406 34.121094 20.476562 L 34.121094 32.070312 C 34.121094 32.855469 34.613281 33.363281 35.371094 33.363281 C 36.132812 33.363281 36.625 32.855469 36.625 32.070312 L 36.625 28.550781 L 39.363281 28.550781 C 42.15625 28.550781 44.109375 26.621094 44.109375 23.859375 C 44.109375 21.109375 42.183594 19.183594 39.429688 19.183594 Z M 41.558594 23.871094 C 41.558594 25.492188 40.601562 26.386719 38.859375 26.386719 L 36.625 26.386719 L 36.625 21.359375 L 38.871094 21.359375 C 40.605469 21.359375 41.558594 22.25 41.558594 23.871094 Z M 41.558594 23.871094 "/></g></svg>