<svg xmlns="http://www.w3.org/2000/svg" xmlns:xlink="http://www.w3.org/1999/xlink" width="96" zoomAndPan="magnify" viewBox="0 0 72 72" height="96" preserveAspectRatio="xMidYMid meet" version="1.2"><defs><clipPath id="2bf1aa0ae7"><path d="M 1.351562 1.800781 L 71 1.800781 L 71 70.648438 L 1.351562 70.648438 Z M 1.351562 1.800781 "/></clipPath><clipPath id="c55bf8d524"><path d="M 8.851562 1.800781 L 63.300781 1.800781 C 65.289062 1.800781 67.195312 2.589844 68.601562 3.996094 C 70.011719 5.402344 70.800781 7.3125 70.800781 9.300781 L 70.800781 63.148438 C 70.800781 65.140625 70.011719 67.046875 68.601562 68.453125 C 67.195312 69.859375 65.289062 70.648438 63.300781 70.648438 L 8.851562 70.648438 C 6.859375 70.648438 4.953125 69.859375 3.546875 68.453125 C 2.140625 67.046875 1.351562 65.140625 1.351562 63.148438 L 1.351562 9.300781 C 1.351562 7.3125 2.140625 5.402344 3.546875 3.996094 C 4.953125 2.589844 6.859375 1.800781 8.851562 1.800781 Z M 8.851562 1.800781 "/></clipPath><clipPath id="c855b4039e"><path d="M 19.144531 16 L 52.894531 16 L 52.894531 56 L 19.144531 56 Z M 19.144531 16 "/></clipPath></defs><g id="bc23b5e3e7"><g clip-rule="nonzero" clip-path="url(#2bf1aa0ae7)"><g clip-rule="nonzero" clip-path="url(#c55bf8d524)"><path style=" stroke:none;fill-rule:nonzero;fill:#fe388b;fill-opacity:1;" d="M 1.351562 1.800781 L 70.738281 1.800781 L 70.738281 70.648438 L 1.351562 70.648438 Z M 1.351562 1.800781 "/></g></g><g clip-rule="nonzero" clip-path="url(#c855b4039e)"><path style=" stroke:none;fill-rule:nonzero;fill:#ffffff;fill-opacity:1;" d="M 35.707031 55.648438 C 35.914062 55.703125 36.125 55.703125 36.335938 55.648438 C 37.507812 55.359375 38.652344 54.96875 39.761719 54.488281 C 40.875 54.003906 41.9375 53.433594 42.953125 52.773438 C 43.96875 52.117188 44.921875 51.378906 45.816406 50.558594 C 46.707031 49.742188 47.527344 48.855469 48.273438 47.902344 C 49.015625 46.945312 49.679688 45.9375 50.253906 44.871094 C 50.832031 43.808594 51.316406 42.703125 51.710938 41.558594 C 52.105469 40.414062 52.402344 39.242188 52.597656 38.046875 C 52.796875 36.855469 52.898438 35.652344 52.894531 34.441406 L 52.894531 24.054688 C 52.894531 23.882812 52.863281 23.71875 52.796875 23.558594 C 52.730469 23.398438 52.636719 23.261719 52.515625 23.136719 C 52.394531 23.015625 52.253906 22.921875 52.09375 22.855469 C 51.933594 22.789062 51.769531 22.757812 51.597656 22.757812 C 48.867188 22.644531 46.242188 22.0625 43.722656 21.011719 C 41.199219 19.960938 38.9375 18.507812 36.9375 16.648438 C 36.816406 16.527344 36.675781 16.433594 36.515625 16.367188 C 36.359375 16.300781 36.191406 16.269531 36.019531 16.269531 C 35.847656 16.269531 35.683594 16.300781 35.523438 16.367188 C 35.363281 16.433594 35.222656 16.527344 35.101562 16.648438 C 29.089844 22.660156 20.527344 22.757812 20.445312 22.757812 C 20.269531 22.757812 20.105469 22.789062 19.945312 22.855469 C 19.789062 22.921875 19.648438 23.015625 19.527344 23.136719 C 19.402344 23.261719 19.308594 23.398438 19.246094 23.558594 C 19.179688 23.71875 19.144531 23.882812 19.144531 24.054688 L 19.144531 34.441406 C 19.144531 35.652344 19.242188 36.855469 19.441406 38.046875 C 19.640625 39.242188 19.9375 40.414062 20.328125 41.558594 C 20.722656 42.703125 21.207031 43.808594 21.785156 44.871094 C 22.363281 45.9375 23.023438 46.945312 23.769531 47.902344 C 24.515625 48.855469 25.332031 49.742188 26.226562 50.558594 C 27.117188 51.378906 28.074219 52.117188 29.089844 52.773438 C 30.105469 53.433594 31.167969 54.003906 32.277344 54.488281 C 33.386719 54.96875 34.53125 55.359375 35.707031 55.648438 Z M 21.742188 25.285156 C 24.371094 25.0625 26.90625 24.441406 29.34375 23.429688 C 31.78125 22.417969 34.007812 21.054688 36.019531 19.347656 C 38.035156 21.054688 40.257812 22.417969 42.695312 23.429688 C 45.136719 24.441406 47.667969 25.0625 50.300781 25.285156 L 50.300781 34.441406 C 50.300781 35.492188 50.214844 36.539062 50.042969 37.578125 C 49.875 38.621094 49.621094 39.636719 49.28125 40.636719 C 48.945312 41.632812 48.527344 42.597656 48.03125 43.527344 C 47.535156 44.453125 46.964844 45.335938 46.324219 46.171875 C 45.683594 47.007812 44.976562 47.785156 44.207031 48.507812 C 43.441406 49.226562 42.617188 49.878906 41.742188 50.464844 C 40.863281 51.046875 39.945312 51.558594 38.988281 51.992188 C 38.027344 52.425781 37.039062 52.777344 36.019531 53.050781 C 35.003906 52.777344 34.015625 52.425781 33.054688 51.992188 C 32.09375 51.558594 31.175781 51.046875 30.300781 50.464844 C 29.425781 49.878906 28.601562 49.226562 27.832031 48.507812 C 27.0625 47.785156 26.359375 47.007812 25.71875 46.171875 C 25.074219 45.335938 24.507812 44.453125 24.011719 43.527344 C 23.515625 42.597656 23.097656 41.632812 22.757812 40.636719 C 22.421875 39.636719 22.167969 38.621094 21.996094 37.578125 C 21.824219 36.539062 21.742188 35.492188 21.742188 34.441406 Z M 21.742188 25.285156 "/></g><path style=" stroke:none;fill-rule:nonzero;fill:#ffffff;fill-opacity:1;" d="M 33.804688 40.550781 C 33.925781 40.671875 34.066406 40.761719 34.226562 40.828125 C 34.386719 40.890625 34.550781 40.925781 34.722656 40.925781 C 34.894531 40.925781 35.058594 40.890625 35.21875 40.828125 C 35.375 40.761719 35.515625 40.671875 35.640625 40.550781 L 43.429688 32.761719 C 43.546875 32.640625 43.636719 32.5 43.699219 32.339844 C 43.761719 32.183594 43.792969 32.019531 43.792969 31.847656 C 43.792969 31.679688 43.757812 31.515625 43.691406 31.359375 C 43.625 31.203125 43.53125 31.0625 43.414062 30.941406 C 43.292969 30.820312 43.152344 30.730469 42.996094 30.664062 C 42.839844 30.597656 42.675781 30.5625 42.507812 30.5625 C 42.335938 30.5625 42.171875 30.589844 42.015625 30.65625 C 41.855469 30.71875 41.714844 30.808594 41.59375 30.925781 L 34.722656 37.796875 L 31.746094 34.820312 C 31.625 34.703125 31.484375 34.613281 31.324219 34.550781 C 31.167969 34.484375 31.003906 34.457031 30.832031 34.457031 C 30.664062 34.457031 30.5 34.492188 30.34375 34.558594 C 30.183594 34.625 30.046875 34.714844 29.925781 34.835938 C 29.804688 34.957031 29.710938 35.09375 29.648438 35.253906 C 29.582031 35.410156 29.546875 35.574219 29.546875 35.742188 C 29.542969 35.914062 29.574219 36.078125 29.636719 36.234375 C 29.703125 36.394531 29.792969 36.535156 29.910156 36.65625 Z M 33.804688 40.550781 "/></g></svg>